<svg width="275" height="80" viewBox="0 0 275 80" fill="none" xmlns="http://www.w3.org/2000/svg">
<g clip-path="url(#clip0_40_131)">
<path fill-rule="evenodd" clip-rule="evenodd" d="M33.9206 0.68004C28.9898 2.05214 24.7907 6.4689 23.6313 11.5024C23.4476 12.3003 23.2938 15.5439 23.2893 18.7101C23.2822 24.0596 23.3215 24.4516 23.8451 24.2507C25.3577 23.6704 27.7125 23.3941 30.3448 23.4883L33.249 23.5921L32.3312 22.6249C30.7804 20.9904 30.2346 19.6047 30.2358 17.3055C30.2365 15.7615 30.4267 14.8488 30.9577 13.8381C31.6276 12.5627 31.6441 12.3993 31.1875 11.5166C30.2252 9.65575 30.7111 7.50024 32.3054 6.55853C34.2823 5.39083 36.7467 6.16973 37.5678 8.22175C38.0046 9.31336 38.2381 9.50583 39.3403 9.68218C40.0386 9.79373 41.3121 10.3579 42.1699 10.9356C45.0034 12.8436 46.1792 16.3928 45.1756 20.0074C44.7378 21.5849 42.1461 24.2398 40.7434 24.5477C39.6172 24.7949 39.4174 25.1966 40.2878 25.4623C40.5983 25.5571 42.1416 26.0845 43.7177 26.6348C47.3656 27.9083 51.891 28.3383 52.6038 27.4795C52.9768 27.0301 53.0874 24.4703 53.2048 13.5738L53.3485 0.218697L44.3599 0.247388C38.231 0.267054 34.9097 0.404717 33.9206 0.68004ZM197.733 23.7778C194.187 24.401 191.624 26.4859 190.723 29.4793C189.565 33.3249 190.949 36.6371 194.454 38.4132C195.274 38.829 197.533 39.6315 199.473 40.1966C205.195 41.8634 206.722 42.9615 206.722 45.4084C206.722 47.0546 206.012 48.0823 204.44 48.7113C201.834 49.7539 197.973 49.1691 194.997 47.2815L193.426 46.2853L191.884 47.9956L190.341 49.7059L190.993 50.4113C191.352 50.7994 192.696 51.6361 193.98 52.2705C199.816 55.1543 207.273 54.3674 210.177 50.5612C211.501 48.8248 211.976 47.0468 211.826 44.3935C211.669 41.629 210.813 40.0193 208.715 38.545C207.142 37.4386 205.71 36.8924 200.404 35.372C196.36 34.2134 194.877 32.6588 195.767 30.5103C196.42 28.9322 198.457 28.1423 201.342 28.3486C203.131 28.4766 204.102 28.7716 206.108 29.7968L208.628 31.0841L210.094 29.2175L211.561 27.3508L209.706 26.1873C206.347 24.0805 201.528 23.1108 197.733 23.7778ZM90.9839 38.6988V53.3215L92.9656 53.5288C94.0553 53.6426 98.5527 53.7358 102.96 53.7358H110.972V51.3178V48.8999H103.557H96.1422V44.7088V40.5177H102.268H108.393V38.0998V35.6819H102.268H96.1422V32.2968V28.9115H103.557H110.972V26.4936V24.0757H100.978H90.9839V38.6988ZM113.229 38.7446V53.4134H115.647H118.065V38.7446V24.0757H115.647H113.229V38.7446ZM137.086 29.2385V34.4013L135.877 33.6095C132.164 31.1776 126.255 31.9462 123.202 35.2589C121.011 37.6349 120.483 39.1592 120.483 43.0969C120.483 47.1081 121.048 48.6759 123.308 50.9361C127.699 55.3271 136.601 54.6282 140.045 49.6221C141.825 47.0352 141.922 46.2624 141.922 34.6634V24.0757H139.504H137.086V29.2385ZM58.1451 26.3869C57.3949 28.3902 57.3868 28.5892 58.0535 28.5892C58.8666 28.5892 60.5582 29.999 61.1743 31.1905C61.8368 32.4721 61.7614 35.2415 60.9963 37.7184C60.2629 40.0925 59.0697 41.7822 54.2383 47.288C51.2611 50.6808 48.7506 54.6091 48.7506 55.8745C48.7506 56.7676 49.8561 56.2711 51.3597 54.703L52.9053 53.091H66.1643H79.4233L79.3201 44.1446L79.2166 35.1983L78.2214 33.1027C76.908 30.3365 74.7454 28.1597 72.0353 26.876C69.8895 25.8595 69.8086 25.8479 64.1467 25.7421L58.4262 25.6354L58.1451 26.3869ZM0.0693359 34.5196C0.0693359 42.14 0.13736 43.2487 0.719279 45.1328C1.81348 48.6755 4.48611 51.6473 8.12913 53.3715C9.84812 54.1852 10.1228 54.2139 17.1377 54.3183L24.3732 54.426L22.3302 52.8902C15.5638 47.8041 14.0334 39.5754 18.26 31.0071C19.0472 29.4113 20.0054 27.6339 20.3897 27.0578L21.088 26.01H10.5787H0.0693359V34.5196ZM39.9445 31.4797C38.4354 31.9601 36.9291 33.3232 36.167 34.8975C35.5529 36.1661 35.4755 36.7093 35.647 38.5537C36.1357 43.8123 39.0585 48.7768 43.2493 51.4658C44.9045 52.5278 45.5267 52.6816 45.5267 52.0281C45.5267 51.3095 48.2818 47.3753 50.6044 44.7781C55.3338 39.4887 56.4019 37.9918 56.9858 35.8347C57.2904 34.7092 57.4529 33.5615 57.3465 33.2842C56.8968 32.1126 53.5017 33.0615 50.9712 35.0654L49.7117 36.0633L47.8988 34.4068C44.996 31.7534 42.2538 30.7443 39.9445 31.4797ZM151.755 32.5682C149.588 33.1314 148.446 33.7704 146.968 35.2479C145.415 36.8002 144.684 38.2171 144.181 40.6531C143.102 45.8839 145.488 50.8817 150.046 52.9372C152.551 54.0666 156.223 54.2184 158.902 53.3031C161.463 52.4285 164.812 49.1353 164.812 47.4917C164.812 47.0497 164.407 46.9656 162.282 46.9656C160.122 46.9656 159.664 47.0642 159.14 47.6432C157.325 49.6485 153.526 49.9796 151.296 48.3267C150.538 47.7648 149.032 45.5319 149.02 44.9506C149.017 44.8178 152.808 44.7088 157.444 44.7088H165.873L165.665 42.2103C165.171 36.2747 161.567 32.6785 155.735 32.3022C154.322 32.2109 152.716 32.3184 151.755 32.5682ZM174.72 32.4863C171.814 33.1711 169.854 34.7669 168.619 37.455C167.929 38.9548 167.87 39.566 167.769 46.2402L167.66 53.4134H170.248H172.837L172.935 46.3459C173.032 39.3175 173.037 39.2739 173.839 38.4058C174.765 37.4031 176.351 36.649 177.536 36.649C178.331 36.649 178.352 36.5923 178.352 34.3923V32.1355L177.143 32.1677C176.478 32.1858 175.388 32.329 174.72 32.4863ZM239.123 32.4502C236.385 33.154 234.532 34.6144 233.219 37.1036C232.363 38.7243 232.351 38.8352 232.25 46.079L232.148 53.4134H234.749H237.35V46.3643C237.35 39.6212 237.38 39.2765 238.049 38.4267C239.449 36.6461 241.989 36.1842 244.281 37.2935C246.504 38.3696 246.699 39.1395 246.699 46.8153V53.4134H249.117H251.535L251.532 46.2402C251.529 39.3987 251.494 38.9925 250.775 37.455C249.752 35.2695 247.518 33.2752 245.381 32.6407C243.603 32.1122 240.772 32.0262 239.123 32.4502ZM261.27 32.6172C260.33 32.8819 259.266 33.2562 258.904 33.4493C257.551 34.1737 255.647 36.179 254.814 37.7571C254.025 39.2523 253.953 39.7005 253.953 43.0969C253.953 46.5984 254.006 46.8995 254.903 48.5192C256.532 51.4607 258.89 53.0817 262.486 53.7339C267.2 54.5888 271.895 52.6329 273.841 49.0044C275.471 45.9629 275.486 45.9984 272.53 45.9984C270.03 45.9984 269.93 46.0277 269.402 46.9217C267.933 49.409 263.725 50.1882 261.117 48.4563C258.023 46.4017 257.794 40.3001 260.725 37.995C261.924 37.0517 263.962 36.5439 265.545 36.7938C267.109 37.0407 269.135 38.3058 269.424 39.2159C269.612 39.8091 269.898 39.873 272.373 39.873C275.064 39.873 275.109 39.8601 274.897 39.1476C274.497 37.8084 273.157 35.7573 272.094 34.8585C269.366 32.5514 264.838 31.6138 261.27 32.6172ZM211.558 32.5869C211.558 32.6578 213.227 37.4505 215.266 43.2371C217.305 49.024 218.973 54.2123 218.973 54.7668C218.973 56.3407 217.571 58.4327 216.072 59.0939L214.782 59.663V61.8575C214.782 64.375 214.811 64.3921 217.643 63.551C219.614 62.9655 221.421 61.3271 222.451 59.1916C222.829 58.4072 225.157 52.0658 227.623 45.0996L232.108 32.4331L229.49 32.5263L226.872 32.6191L224.564 39.2282C223.295 42.8631 222.165 46.1273 222.054 46.482C221.818 47.2335 221.407 46.2337 218.51 37.858L216.642 32.4579H214.1C212.702 32.4579 211.558 32.516 211.558 32.5869ZM128.517 37.2603C127.794 37.5888 126.888 38.2575 126.503 38.7462C124.25 41.6106 125.086 46.8679 128.06 48.5395C129.751 49.4902 132.607 49.4683 134.317 48.4918C137.228 46.8292 137.991 41.6074 135.74 38.7462C134.839 37.6007 132.76 36.6632 131.122 36.6632C130.412 36.6632 129.24 36.9321 128.517 37.2603ZM152.561 37.1629C151.94 37.4318 151.034 38.0337 150.546 38.5002C148.891 40.0838 149.173 40.1953 154.817 40.1953C160.546 40.1953 160.757 40.1009 158.928 38.3535C157.241 36.7422 154.651 36.2577 152.561 37.1629ZM25.5383 67.6125V79.8495L32.7116 79.8469C36.657 79.8456 40.8278 79.6931 41.9804 79.5078C47.1519 78.6763 51.2472 75.2074 52.9201 70.2419C53.5056 68.5039 53.5865 67.4803 53.5865 61.8156V55.3671L52.3775 56.1937C50.2687 57.6351 48.2467 58.5307 45.4819 59.2474C41.5416 60.2687 36.5536 60.0234 32.3086 58.5997C30.624 58.0346 28.4114 57.078 27.392 56.4739L25.5383 55.3751V67.6125Z" fill="white"/>
<path fill-rule="evenodd" clip-rule="evenodd" d="M33.9206 0.749307C28.9898 2.12141 24.7907 6.53817 23.6313 11.5717C23.4476 12.3696 23.2938 15.6132 23.2893 18.7794C23.2822 24.1288 23.3215 24.5208 23.8451 24.32C25.3577 23.7397 27.7125 23.4634 30.3448 23.5575L33.249 23.6614L32.3312 22.6942C30.7804 21.0597 30.2346 19.674 30.2358 17.3747C30.2365 15.8308 30.4267 14.9181 30.9577 13.9074C31.6276 12.632 31.6441 12.4686 31.1875 11.5859C30.2252 9.72501 30.7111 7.5695 32.3054 6.6278C34.2823 5.46009 36.7467 6.23899 37.5678 8.29101C38.0046 9.38263 38.2381 9.5751 39.3403 9.75145C40.0386 9.863 41.3121 10.4272 42.1699 11.0049C45.0034 12.9128 46.1792 16.462 45.1756 20.0767C44.7378 21.6541 42.1461 24.309 40.7434 24.6169C39.6172 24.8642 39.4174 25.2659 40.2878 25.5315C40.5983 25.6263 42.1416 26.1538 43.7177 26.7041C47.3656 27.9775 51.891 28.4076 52.6038 27.5487C52.9768 27.0993 53.0874 24.5395 53.2048 13.643L53.3485 0.287964L44.3599 0.316655C38.231 0.336321 34.9097 0.473984 33.9206 0.749307ZM197.733 23.847C194.187 24.4702 191.624 26.5551 190.723 29.5485C189.565 33.3941 190.949 36.7064 194.454 38.4824C195.274 38.8983 197.533 39.7007 199.473 40.2659C205.195 41.9327 206.722 43.0307 206.722 45.4777C206.722 47.1238 206.012 48.1516 204.44 48.7806C201.834 49.8232 197.973 49.2384 194.997 47.3508L193.426 46.3546L191.884 48.0649L190.341 49.7752L190.993 50.4806C191.352 50.8687 192.696 51.7053 193.98 52.3398C199.816 55.2236 207.273 54.4366 210.177 50.6305C211.501 48.8941 211.976 47.1161 211.826 44.4628C211.669 41.6983 210.813 40.0886 208.715 38.6143C207.142 37.5078 205.71 36.9617 200.404 35.4413C196.36 34.2826 194.877 32.7281 195.767 30.5796C196.42 29.0014 198.457 28.2116 201.342 28.4179C203.131 28.5459 204.102 28.8409 206.108 29.8661L208.628 31.1534L210.094 29.2868L211.561 27.4201L209.706 26.2566C206.347 24.1498 201.528 23.18 197.733 23.847ZM90.9839 38.7681V53.3908L92.9656 53.5981C94.0553 53.7119 98.5527 53.8051 102.96 53.8051H110.972V51.3871V48.9692H103.557H96.1422V44.7781V40.587H102.268H108.393V38.1691V35.7511H102.268H96.1422V32.366V28.9808H103.557H110.972V26.5629V24.1449H100.978H90.9839V38.7681ZM113.229 38.8139V53.4827H115.647H118.065V38.8139V24.1449H115.647H113.229V38.8139ZM137.086 29.3077V34.4706L135.877 33.6788C132.164 31.2469 126.255 32.0155 123.202 35.3282C121.011 37.7042 120.483 39.2284 120.483 43.1661C120.483 47.1773 121.048 48.7451 123.308 51.0054C127.699 55.3964 136.601 54.6974 140.045 49.6913C141.825 47.1045 141.922 46.3317 141.922 34.7327V24.1449H139.504H137.086V29.3077ZM58.1451 26.4562C57.3949 28.4595 57.3868 28.6584 58.0535 28.6584C58.8666 28.6584 60.5582 30.0682 61.1743 31.2598C61.8368 32.5414 61.7614 35.3107 60.9963 37.7877C60.2629 40.1618 59.0697 41.8514 54.2383 47.3572C51.2611 50.7501 48.7506 54.6784 48.7506 55.9438C48.7506 56.8368 49.8561 56.3403 51.3597 54.7722L52.9053 53.1603H66.1643H79.4233L79.3201 44.2139L79.2166 35.2675L78.2214 33.172C76.908 30.4058 74.7454 28.229 72.0353 26.9452C69.8895 25.9287 69.8086 25.9171 64.1467 25.8114L58.4262 25.7047L58.1451 26.4562ZM0.0693359 34.5889C0.0693359 42.2093 0.13736 43.318 0.719279 45.202C1.81348 48.7448 4.48611 51.7166 8.12913 53.4408C9.84812 54.2545 10.1228 54.2832 17.1377 54.3876L24.3732 54.4953L22.3302 52.9594C15.5638 47.8734 14.0334 39.6447 18.26 31.0764C19.0472 29.4805 20.0054 27.7032 20.3897 27.1271L21.088 26.0793H10.5787H0.0693359V34.5889ZM39.9445 31.549C38.4354 32.0293 36.9291 33.3925 36.167 34.9668C35.5529 36.2354 35.4755 36.7786 35.647 38.623C36.1357 43.8815 39.0585 48.846 43.2493 51.5351C44.9045 52.5971 45.5267 52.7508 45.5267 52.0973C45.5267 51.3787 48.2818 47.4446 50.6044 44.8474C55.3338 39.5579 56.4019 38.0611 56.9858 35.9039C57.2904 34.7785 57.4529 33.6308 57.3465 33.3535C56.8968 32.1818 53.5017 33.1307 50.9712 35.1347L49.7117 36.1325L47.8988 34.4761C44.996 31.8227 42.2538 30.8136 39.9445 31.549ZM151.755 32.6375C149.588 33.2007 148.446 33.8397 146.968 35.3172C145.415 36.8695 144.684 38.2864 144.181 40.7224C143.102 45.9532 145.488 50.9509 150.046 53.0065C152.551 54.1358 156.223 54.2877 158.902 53.3724C161.463 52.4978 164.812 49.2045 164.812 47.561C164.812 47.119 164.407 47.0348 162.282 47.0348C160.122 47.0348 159.664 47.1335 159.14 47.7125C157.325 49.7178 153.526 50.0489 151.296 48.396C150.538 47.834 149.032 45.6012 149.02 45.0199C149.017 44.8871 152.808 44.7781 157.444 44.7781H165.873L165.665 42.2796C165.171 36.344 161.567 32.7477 155.735 32.3715C154.322 32.2802 152.716 32.3876 151.755 32.6375ZM174.72 32.5556C171.814 33.2403 169.854 34.8362 168.619 37.5243C167.929 39.024 167.87 39.6353 167.769 46.3095L167.66 53.4827H170.248H172.837L172.935 46.4152C173.032 39.3867 173.037 39.3432 173.839 38.475C174.765 37.4724 176.351 36.7183 177.536 36.7183C178.331 36.7183 178.352 36.6616 178.352 34.4616V32.2047L177.143 32.237C176.478 32.255 175.388 32.3983 174.72 32.5556ZM239.123 32.5195C236.385 33.2233 234.532 34.6837 233.219 37.1729C232.363 38.7935 232.351 38.9044 232.25 46.1483L232.148 53.4827H234.749H237.35V46.4336C237.35 39.6904 237.38 39.3458 238.049 38.496C239.449 36.7154 241.989 36.2534 244.281 37.3628C246.504 38.4389 246.699 39.2088 246.699 46.8846V53.4827H249.117H251.535L251.532 46.3095C251.529 39.468 251.494 39.0618 250.775 37.5243C249.752 35.3388 247.518 33.3445 245.381 32.71C243.603 32.1815 240.772 32.0954 239.123 32.5195ZM261.27 32.6865C260.33 32.9512 259.266 33.3255 258.904 33.5186C257.551 34.243 255.647 36.2483 254.814 37.8264C254.025 39.3216 253.953 39.7697 253.953 43.1661C253.953 46.6676 254.006 46.9687 254.903 48.5884C256.532 51.5299 258.89 53.1509 262.486 53.8031C267.2 54.6581 271.895 52.7022 273.841 49.0736C275.471 46.0322 275.486 46.0677 272.53 46.0677C270.03 46.0677 269.93 46.097 269.402 46.991C267.933 49.4782 263.725 50.2575 261.117 48.5256C258.023 46.471 257.794 40.3694 260.725 38.0643C261.924 37.121 263.962 36.6132 265.545 36.8631C267.109 37.11 269.135 38.3751 269.424 39.2852C269.612 39.8784 269.898 39.9422 272.373 39.9422C275.064 39.9422 275.109 39.9293 274.897 39.2168C274.497 37.8776 273.157 35.8266 272.094 34.9277C269.366 32.6207 264.838 31.6831 261.27 32.6865ZM211.558 32.6562C211.558 32.7271 213.227 37.5198 215.266 43.3064C217.305 49.0933 218.973 54.2816 218.973 54.8361C218.973 56.41 217.571 58.502 216.072 59.1632L214.782 59.7322V61.9267C214.782 64.4443 214.811 64.4614 217.643 63.6203C219.614 63.0348 221.421 61.3964 222.451 59.2609C222.829 58.4765 225.157 52.1351 227.623 45.1688L232.108 32.5024L229.49 32.5956L226.872 32.6884L224.564 39.2974C223.295 42.9324 222.165 46.1966 222.054 46.5512C221.818 47.3027 221.407 46.303 218.51 37.9273L216.642 32.5272H214.1C212.702 32.5272 211.558 32.5852 211.558 32.6562ZM128.517 37.3296C127.794 37.6581 126.888 38.3267 126.503 38.8155C124.25 41.6799 125.086 46.9371 128.06 48.6087C129.751 49.5595 132.607 49.5376 134.317 48.561C137.228 46.8985 137.991 41.6767 135.74 38.8155C134.839 37.67 132.76 36.7325 131.122 36.7325C130.412 36.7325 129.24 37.0014 128.517 37.3296ZM152.561 37.2322C151.94 37.5011 151.034 38.103 150.546 38.5695C148.891 40.1531 149.173 40.2646 154.817 40.2646C160.546 40.2646 160.757 40.1702 158.928 38.4228C157.241 36.8115 154.651 36.3269 152.561 37.2322ZM25.5383 67.6818V79.9188L32.7116 79.9162C36.657 79.9149 40.8278 79.7624 41.9804 79.577C47.1519 78.7456 51.2472 75.2766 52.9201 70.3112C53.5056 68.5732 53.5865 67.5496 53.5865 61.8848V55.4364L52.3775 56.263C50.2687 57.7044 48.2467 58.6 45.4819 59.3167C41.5416 60.338 36.5536 60.0927 32.3086 58.669C30.624 58.1038 28.4114 57.1473 27.392 56.5431L25.5383 55.4444V67.6818Z" fill="white"/>
<path fill-rule="evenodd" clip-rule="evenodd" d="M197.733 23.7782C194.187 24.4014 191.624 26.4863 190.723 29.4797C189.565 33.3253 190.949 36.6375 194.454 38.4136C195.274 38.8295 197.533 39.6319 199.473 40.1971C205.195 41.8638 206.722 42.9619 206.722 45.4088C206.722 47.055 206.012 48.0828 204.44 48.7118C201.834 49.7544 197.973 49.1695 194.997 47.2819L193.426 46.2858L191.884 47.996L190.341 49.7063L190.993 50.4117C191.352 50.7999 192.696 51.6365 193.98 52.271C199.816 55.1547 207.273 54.3678 210.177 50.5616C211.501 48.8252 211.976 47.0472 211.826 44.394C211.669 41.6294 210.813 40.0197 208.715 38.5455C207.142 37.439 205.71 36.8929 200.404 35.3725C196.36 34.2138 194.877 32.6592 195.767 30.5107C196.42 28.9326 198.457 28.1427 201.342 28.3491C203.131 28.4771 204.102 28.7721 206.108 29.7973L208.628 31.0846L210.094 29.2179L211.561 27.3513L209.706 26.1878C206.347 24.0809 201.528 23.1112 197.733 23.7782ZM0.0693359 34.5201C0.0693359 42.1404 0.13736 43.2491 0.719279 45.1332C1.81348 48.676 4.48611 51.6478 8.12913 53.3719C9.84812 54.1856 10.1228 54.2143 17.1377 54.3188L24.3732 54.4265L22.3302 52.8906C15.5638 47.8045 14.0334 39.5758 18.26 31.0075C19.0472 29.4117 20.0054 27.6343 20.3897 27.0582L21.088 26.0105H10.5787H0.0693359V34.5201ZM39.9445 31.4801C38.4354 31.9605 36.9291 33.3237 36.167 34.8979C35.5529 36.1665 35.4755 36.7098 35.647 38.5542C36.1357 43.8127 39.0585 48.7772 43.2493 51.4663C44.9045 52.5282 45.5267 52.682 45.5267 52.0285C45.5267 51.3099 48.2818 47.3758 50.6044 44.7786C55.3338 39.4891 56.4019 37.9922 56.9858 35.8351C57.2904 34.7096 57.4529 33.5619 57.3465 33.2847C56.8968 32.113 53.5017 33.0619 50.9712 35.0659L49.7117 36.0637L47.8988 34.4072C44.996 31.7539 42.2538 30.7448 39.9445 31.4801ZM239.123 32.4506C236.385 33.1544 234.532 34.6149 233.219 37.104C232.363 38.7247 232.351 38.8356 232.25 46.0794L232.148 53.4138H234.749H237.35V46.3647C237.35 39.6216 237.38 39.277 238.049 38.4271C239.449 36.6466 241.989 36.1846 244.281 37.2939C246.504 38.3701 246.699 39.1399 246.699 46.8158V53.4138H249.117H251.535L251.532 46.2406C251.529 39.3991 251.494 38.9929 250.775 37.4554C249.752 35.27 247.518 33.2756 245.381 32.6412C243.603 32.1127 240.772 32.0266 239.123 32.4506ZM261.27 32.6176C260.33 32.8823 259.266 33.2566 258.904 33.4497C257.551 34.1741 255.647 36.1794 254.814 37.7575C254.025 39.2528 253.953 39.7009 253.953 43.0973C253.953 46.5988 254.006 46.8999 254.903 48.5196C256.532 51.4611 258.89 53.0821 262.486 53.7343C267.2 54.5893 271.895 52.6333 273.841 49.0048C275.471 45.9634 275.486 45.9988 272.53 45.9988C270.03 45.9988 269.93 46.0282 269.402 46.9222C267.933 49.4094 263.725 50.1886 261.117 48.4567C258.023 46.4021 257.794 40.3006 260.725 37.9955C261.924 37.0521 263.962 36.5444 265.545 36.7942C267.109 37.0412 269.135 38.3062 269.424 39.2164C269.612 39.8096 269.898 39.8734 272.373 39.8734C275.064 39.8734 275.109 39.8605 274.897 39.148C274.497 37.8088 273.157 35.7577 272.094 34.8589C269.366 32.5519 264.838 31.6143 261.27 32.6176ZM211.558 32.5873C211.558 32.6583 213.227 37.4509 215.266 43.2375C217.305 49.0245 218.973 54.2127 218.973 54.7672C218.973 56.3411 217.571 58.4331 216.072 59.0944L214.782 59.6634V61.8579C214.782 64.3755 214.811 64.3926 217.643 63.5514C219.614 62.966 221.421 61.3276 222.451 59.1921C222.829 58.4077 225.157 52.0662 227.623 45.1L232.108 32.4336L229.49 32.5267L226.872 32.6196L224.564 39.2286C223.295 42.8636 222.165 46.1278 222.054 46.4824C221.818 47.2339 221.407 46.2342 218.51 37.8584L216.642 32.4584H214.1C212.702 32.4584 211.558 32.5164 211.558 32.5873ZM25.5383 67.6129V79.8499L32.7116 79.8474C36.657 79.8461 40.8278 79.6936 41.9804 79.5082C47.1519 78.6768 51.2472 75.2078 52.9201 70.2423C53.5056 68.5043 53.5865 67.4807 53.5865 61.816V55.3675L52.3775 56.1941C50.2687 57.6355 48.2467 58.5312 45.4819 59.2478C41.5416 60.2692 36.5536 60.0238 32.3086 58.6001C30.624 58.035 28.4114 57.0785 27.392 56.4743L25.5383 55.3756V67.6129Z" fill="#29D68B"/>
<path fill-rule="evenodd" clip-rule="evenodd" d="M0.0693359 34.5201C0.0693359 42.1404 0.13736 43.2491 0.719279 45.1332C1.81348 48.676 4.48611 51.6478 8.12913 53.3719C9.84812 54.1856 10.1228 54.2143 17.1377 54.3188L24.3732 54.4265L22.3302 52.8906C15.5638 47.8045 14.0334 39.5758 18.26 31.0075C19.0472 29.4117 20.0054 27.6343 20.3897 27.0582L21.088 26.0104H10.5787H0.0693359V34.5201ZM39.9445 31.4801C38.4354 31.9605 36.9291 33.3237 36.167 34.8979C35.5529 36.1665 35.4755 36.7098 35.647 38.5542C36.1357 43.8127 39.0585 48.7772 43.2493 51.4663C44.9045 52.5282 45.5267 52.682 45.5267 52.0285C45.5267 51.3099 48.2818 47.3758 50.6043 44.7786C55.3338 39.4891 56.4019 37.9922 56.9858 35.8351C57.2904 34.7096 57.4529 33.5619 57.3465 33.2847C56.8968 32.113 53.5017 33.0619 50.9712 35.0659L49.7116 36.0637L47.8988 34.4072C44.996 31.7538 42.2538 30.7447 39.9445 31.4801ZM25.5383 67.6129V79.8499L32.7116 79.8474C36.657 79.8461 40.8278 79.6936 41.9804 79.5082C47.1519 78.6768 51.2472 75.2078 52.9201 70.2424C53.5056 68.5043 53.5865 67.4808 53.5865 61.816V55.3675L52.3775 56.1941C50.2687 57.6356 48.2467 58.5312 45.4819 59.2478C41.5416 60.2692 36.5536 60.0238 32.3086 58.6001C30.624 58.035 28.4114 57.0785 27.392 56.4743L25.5383 55.3756V67.6129Z" fill="#29D68B"/>
</g>
<defs>
<clipPath id="clip0_40_131">
<rect width="275" height="79.9531" fill="white"/>
</clipPath>
</defs>
</svg>
